<?xml version="1.0" ?><!-- Uploaded to: SVG Repo, www.svgrepo.com, Generator: SVG Repo Mixer Tools -->
<svg width="800px" height="800px" viewBox="-0.5 0 82 82" fill="none" xmlns="http://www.w3.org/2000/svg"><path clip-rule="evenodd" d="M40.4998 0.081543C62.5284 0.081543 80.3854 18.2723 80.3854 40.7116C80.3854 63.1509 62.5284 81.3427 40.4998 81.3427C18.4723 81.3427 0.615234 63.1509 0.615234 40.7116C0.615234 18.2723 18.4723 0.081543 40.4998 0.081543V0.081543Z" fill="url(#paint0_radial)" fill-rule="evenodd"/><path d="M61.5239 45.2997C62.2348 45.4506 62.6909 46.1607 62.5438 46.8849C62.3957 47.609 61.6987 48.0737 60.9878 47.9229C59.5216 47.6111 57.8214 47.1826 56.1508 46.564C54.4358 45.9294 52.7465 45.0905 51.3484 43.9661C50.7787 43.5084 50.6819 42.6676 51.1312 42.0882C51.5804 41.5089 52.4068 41.4103 52.9755 41.868C54.1179 42.7873 55.5594 43.4943 57.0473 44.0455C58.5777 44.6118 60.1564 45.0091 61.5239 45.2997Z" fill="#2B2A29"/><path d="M32.6473 61.5208C31.9532 61.74 31.2146 61.3458 30.9994 60.6387C30.7832 59.9316 31.1702 59.1793 31.8643 58.959C35.0001 57.9592 38.7145 57.3548 42.4496 57.4503C45.7177 57.5348 49.0055 58.1534 51.9478 59.5082C52.6103 59.8119 52.9055 60.6065 52.6073 61.2814C52.3082 61.9573 51.5292 62.258 50.8667 61.9533C48.2561 60.7513 45.3188 60.2012 42.3874 60.1267C38.9613 60.0392 35.5422 60.5974 32.6473 61.5208V61.5208Z" fill="#2B2A29"/><path d="M53.4718 64.5728C53.8075 65.2276 53.5587 66.0352 52.9149 66.3772C52.2722 66.7191 51.4793 66.4657 51.1436 65.8109C50.2383 64.0488 49.8018 62.0191 50.1326 60.0477C50.4268 58.3016 51.3085 56.622 52.9791 55.2319C53.5419 54.7653 54.3703 54.8528 54.8284 55.4261C55.2865 56.0004 55.2006 56.8442 54.6378 57.3099C53.5123 58.2463 52.9209 59.3577 52.7293 60.4993C52.5002 61.8642 52.8201 63.3025 53.4718 64.5728V64.5728Z" fill="#2B2A29"/><path d="M32.2264 65.8736C31.8532 66.5072 31.0455 66.7144 30.4235 66.3352C29.8005 65.9561 29.5971 65.1333 29.9703 64.4987C30.6921 63.2676 31.09 61.8514 30.9359 60.4785C30.8076 59.3259 30.2774 58.1803 29.2051 57.1805C28.671 56.6826 28.6345 55.8368 29.1232 55.2916C29.6119 54.7475 30.4423 54.7093 30.9774 55.2081C32.568 56.6907 33.3559 58.4166 33.5524 60.1737C33.7755 62.1632 33.2266 64.1658 32.2264 65.8736Z" fill="#2B2A29"/><path d="M21.332 47.3816C20.6073 47.446 19.9685 46.8978 19.9053 46.1596C19.8431 45.4203 20.3812 44.7696 21.1059 44.7062C22.502 44.5835 24.1173 44.3803 25.697 44.0062C27.2373 43.6411 28.7518 43.113 29.9959 42.3386C30.6159 41.9534 31.4256 42.1535 31.8047 42.7851C32.1829 43.4168 31.9864 44.2415 31.3663 44.6268C29.8488 45.5712 28.0716 46.1988 26.2944 46.6202C24.5557 47.0316 22.8199 47.2509 21.332 47.3816V47.3816Z" fill="#2B2A29"/><defs><radialGradient cx="0" cy="0" gradientTransform="translate(46.9102 26.1125) scale(126.429 128.793)" gradientUnits="userSpaceOnUse" id="paint0_radial" r="1"><stop stop-color="#C8DB86"/><stop offset="1" stop-color="#97C456"/></radialGradient></defs></svg>